<svg width="100" height="100" viewBox="0 0 100 100" fill="none" xmlns="http://www.w3.org/2000/svg">
<rect width="100" height="100" fill="white"/>
<path d="M57.468 88L43.26 39.9H56.728L61.76 60.916C62.451 63.481 63.043 66.022 63.536 68.538C64.079 71.005 64.671 73.545 65.312 76.16H65.608C66.299 73.545 66.891 71.005 67.384 68.538C67.927 66.022 68.519 63.481 69.16 60.916L74.044 39.9H87.068L72.86 88H57.468Z" fill="black"/>
<path d="M36.528 60.888C32.039 60.888 27.944 60 24.244 58.224C20.593 56.399 17.683 53.661 15.512 50.01C13.341 46.359 12.256 41.796 12.256 36.32C12.256 32.275 12.897 28.698 14.18 25.59C15.463 22.433 17.214 19.769 19.434 17.598C21.654 15.427 24.195 13.799 27.056 12.714C29.967 11.579 33.025 11.012 36.232 11.012C39.784 11.012 42.867 11.653 45.482 12.936C48.097 14.169 50.243 15.649 51.92 17.376L45.26 25.516C44.076 24.48 42.818 23.641 41.486 23C40.203 22.309 38.6 21.964 36.676 21.964C33.42 21.964 30.707 23.197 28.536 25.664C26.365 28.081 25.28 31.485 25.28 35.876C25.28 40.365 26.291 43.843 28.314 46.31C30.386 48.727 33.568 49.936 37.86 49.936C38.551 49.936 39.217 49.862 39.858 49.714C40.549 49.566 41.116 49.344 41.56 49.048V42.388H34.456V32.028H52.808V54.968C51.131 56.596 48.837 58.002 45.926 59.186C43.065 60.321 39.932 60.888 36.528 60.888Z" fill="black"/>
<path d="M24.244 58.224L23.797 59.118L23.804 59.122L23.811 59.126L24.244 58.224ZM15.512 50.01L16.372 49.499L15.512 50.01ZM14.18 25.59L15.104 25.971L15.106 25.966L14.18 25.59ZM19.434 17.598L20.133 18.313L19.434 17.598ZM27.056 12.714L27.411 13.649L27.419 13.646L27.056 12.714ZM45.482 12.936L45.042 13.834L45.048 13.837L45.055 13.84L45.482 12.936ZM51.92 17.376L52.694 18.009L53.259 17.319L52.637 16.679L51.92 17.376ZM45.26 25.516L44.601 26.269L45.379 26.949L46.034 26.149L45.26 25.516ZM41.486 23L41.012 23.88L41.032 23.891L41.052 23.901L41.486 23ZM28.536 25.664L29.28 26.332L29.287 26.325L28.536 25.664ZM28.314 46.31L27.541 46.944L27.548 46.953L27.555 46.961L28.314 46.31ZM39.858 49.714L39.648 48.736L39.641 48.738L39.633 48.74L39.858 49.714ZM41.56 49.048L42.115 49.88L42.56 49.583V49.048H41.56ZM41.56 42.388H42.56V41.388H41.56V42.388ZM34.456 42.388H33.456V43.388H34.456V42.388ZM34.456 32.028V31.028H33.456V32.028H34.456ZM52.808 32.028H53.808V31.028H52.808V32.028ZM52.808 54.968L53.504 55.686L53.808 55.391V54.968H52.808ZM45.926 59.186L46.295 60.116L46.303 60.112L45.926 59.186ZM36.528 59.888C32.174 59.888 28.229 59.028 24.677 57.322L23.811 59.126C27.659 60.972 31.903 61.888 36.528 61.888V59.888ZM24.691 57.33C21.219 55.593 18.448 52.992 16.372 49.499L14.652 50.521C16.917 54.329 19.968 57.204 23.797 59.118L24.691 57.33ZM16.372 49.499C14.316 46.042 13.256 41.667 13.256 36.32H11.256C11.256 41.925 12.367 46.677 14.652 50.521L16.372 49.499ZM13.256 36.32C13.256 32.38 13.881 28.937 15.104 25.971L13.256 25.209C11.914 28.459 11.256 32.17 11.256 36.32H13.256ZM15.106 25.966C16.343 22.924 18.021 20.379 20.133 18.313L18.735 16.883C16.407 19.159 14.583 21.942 13.254 25.214L15.106 25.966ZM20.133 18.313C22.256 16.237 24.68 14.685 27.411 13.649L26.701 11.779C23.709 12.914 21.052 14.618 18.735 16.883L20.133 18.313ZM27.419 13.646C30.211 12.557 33.146 12.012 36.232 12.012V10.012C32.904 10.012 29.722 10.601 26.693 11.782L27.419 13.646ZM36.232 12.012C39.664 12.012 42.591 12.632 45.042 13.834L45.922 12.038C43.144 10.675 39.904 10.012 36.232 10.012V12.012ZM45.055 13.84C47.583 15.033 49.624 16.448 51.203 18.073L52.637 16.679C50.861 14.851 48.611 13.306 45.909 12.032L45.055 13.84ZM51.146 16.743L44.486 24.883L46.034 26.149L52.694 18.009L51.146 16.743ZM45.919 24.763C44.671 23.672 43.338 22.782 41.92 22.099L41.052 23.901C42.298 24.501 43.481 25.288 44.601 26.269L45.919 24.763ZM41.96 22.12C40.492 21.329 38.714 20.964 36.676 20.964V22.964C38.486 22.964 39.914 23.289 41.012 23.88L41.96 22.12ZM36.676 20.964C33.13 20.964 30.144 22.323 27.785 25.003L29.287 26.325C31.27 24.071 33.71 22.964 36.676 22.964V20.964ZM27.792 24.996C25.406 27.653 24.28 31.326 24.28 35.876H26.28C26.28 31.644 27.325 28.51 29.28 26.332L27.792 24.996ZM24.28 35.876C24.28 40.504 25.322 44.238 27.541 46.944L29.087 45.676C27.261 43.449 26.28 40.227 26.28 35.876H24.28ZM27.555 46.961C29.877 49.67 33.383 50.936 37.86 50.936V48.936C33.753 48.936 30.895 47.785 29.073 45.659L27.555 46.961ZM37.86 50.936C38.623 50.936 39.364 50.854 40.083 50.688L39.633 48.74C39.069 48.87 38.479 48.936 37.86 48.936V50.936ZM40.068 50.692C40.844 50.525 41.538 50.265 42.115 49.88L41.005 48.216C40.694 48.423 40.254 48.607 39.648 48.736L40.068 50.692ZM42.56 49.048V42.388H40.56V49.048H42.56ZM41.56 41.388H34.456V43.388H41.56V41.388ZM35.456 42.388V32.028H33.456V42.388H35.456ZM34.456 33.028H52.808V31.028H34.456V33.028ZM51.808 32.028V54.968H53.808V32.028H51.808ZM52.112 54.25C50.552 55.764 48.379 57.108 45.549 58.26L46.303 60.112C49.294 58.896 51.709 57.428 53.504 55.686L52.112 54.25ZM45.557 58.256C42.825 59.34 39.819 59.888 36.528 59.888V61.888C40.045 61.888 43.304 61.301 46.295 60.116L45.557 58.256Z" fill="white"/>
</svg>
