<svg width="241" height="112" viewBox="0 0 241 112" fill="none" xmlns="http://www.w3.org/2000/svg">
<rect width="241" height="112" fill="#E5E5E5"/>
<rect width="241" height="112" fill="white"/>
<path d="M15 102.04V61.8858C15 61.6234 15.1078 61.3717 15.2998 61.1862L46.0074 31.5052C46.4071 31.1189 47.0553 31.1189 47.455 31.5052L78.1626 61.1862C78.3545 61.3717 78.4624 61.6234 78.4624 61.8858V102.04" stroke="black" stroke-width="9"/>
<path d="M78.4624 92.1463V65.37C78.4624 65.1956 78.5101 65.0242 78.6008 64.8733L89.8602 46.1303C90.2548 45.4735 91.236 45.4735 91.6306 46.1303L102.89 64.8733C102.981 65.0242 103.028 65.1956 103.028 65.37V92.1463" stroke="black" stroke-width="9"/>
<path d="M78.7899 54.2734C75.0641 54.2734 71.6658 53.5611 68.595 52.1364C65.5652 50.6721 63.1495 48.4757 61.348 45.5472C59.5465 42.6187 58.6457 38.958 58.6457 34.5652C58.6457 31.3201 59.178 28.4509 60.2425 25.9577C61.3071 23.425 62.7606 21.2879 64.603 19.5466C66.4455 17.8054 68.5541 16.4994 70.9288 15.6288C73.3444 14.7185 75.8829 14.2634 78.5443 14.2634C81.4922 14.2634 84.0512 14.7779 86.2212 15.8068C88.3912 16.7962 90.1722 17.9834 91.5643 19.3686L86.0369 25.8984C85.0543 25.0673 84.0102 24.3945 82.9047 23.8801C81.8402 23.326 80.5095 23.049 78.9128 23.049C76.2105 23.049 73.9586 24.0384 72.1571 26.0171C70.3556 27.9563 69.4548 30.6869 69.4548 34.209C69.4548 37.8103 70.2942 40.6004 71.9728 42.5791C73.6925 44.5182 76.3333 45.4878 79.8954 45.4878C80.4686 45.4878 81.0213 45.4285 81.5536 45.3097C82.1268 45.191 82.5977 45.0129 82.9662 44.7755V39.4329H77.0703V31.1222H92.3013V49.5244C90.9092 50.8304 89.0053 51.9583 86.5897 52.9081C84.2149 53.8183 81.615 54.2734 78.7899 54.2734ZM108.545 54.2734C105.187 54.2734 102.751 53.1851 101.236 51.0085C99.7213 48.7923 98.9639 45.844 98.9639 42.1636V23.8801H109.527V40.8576C109.527 42.7572 109.773 44.0236 110.264 44.6568C110.797 45.29 111.574 45.6065 112.598 45.6065C113.581 45.6065 114.399 45.4087 115.055 45.0129C115.71 44.6172 116.365 43.9444 117.02 42.9946V23.8801H127.583V53.5611H118.985L118.248 49.6432H118.002C116.774 51.0679 115.403 52.1957 113.888 53.0268C112.414 53.8579 110.633 54.2734 108.545 54.2734ZM134.716 53.5611V23.8801H145.279V53.5611H134.716ZM139.997 20.1996C138.278 20.1996 136.886 19.7445 135.821 18.8343C134.757 17.8845 134.224 16.6379 134.224 15.0945C134.224 13.5511 134.757 12.3243 135.821 11.4141C136.886 10.4643 138.278 9.98936 139.997 9.98936C141.717 9.98936 143.109 10.4643 144.174 11.4141C145.238 12.3243 145.77 13.5511 145.77 15.0945C145.77 16.6379 145.238 17.8845 144.174 18.8343C143.109 19.7445 141.717 20.1996 139.997 20.1996ZM165.06 54.2734C161.088 54.2734 158.202 53.1653 156.4 50.9491C154.64 48.6934 153.759 45.7648 153.759 42.1636V31.8346H149.706V24.2362L154.374 23.8801L155.602 16.163H164.323V23.8801H171.324V31.8346H164.323V41.9855C164.323 43.608 164.691 44.7359 165.428 45.3691C166.165 46.0023 167.025 46.3189 168.008 46.3189C168.499 46.3189 168.97 46.2793 169.42 46.2002C169.912 46.0814 170.342 45.9627 170.71 45.844L172.307 53.2049C171.529 53.4423 170.546 53.6798 169.359 53.9172C168.172 54.1547 166.739 54.2734 165.06 54.2734ZM183.782 54.2734C181.858 54.2734 180.2 53.8579 178.808 53.0268C177.457 52.1562 176.412 51.0283 175.675 49.6432C174.938 48.2581 174.57 46.7542 174.57 45.1317C174.57 42.0448 175.88 39.6308 178.501 37.8895C181.121 36.1086 185.379 34.9214 191.275 34.3278C191.029 32.2699 189.596 31.241 186.976 31.241C185.87 31.241 184.704 31.4586 183.475 31.8939C182.247 32.2897 180.834 32.9031 179.238 33.7342L175.553 27.0856C177.723 25.8192 179.913 24.8496 182.124 24.1769C184.376 23.5041 186.689 23.1677 189.064 23.1677C193.076 23.1677 196.209 24.2758 198.461 26.492C200.712 28.6686 201.838 32.1907 201.838 37.0584V53.5611H193.24L192.503 50.7117H192.258C191.029 51.7802 189.719 52.6508 188.327 53.3236C186.976 53.9568 185.461 54.2734 183.782 54.2734ZM187.467 46.4376C188.327 46.4376 189.044 46.2595 189.617 45.9034C190.19 45.5076 190.743 45.0129 191.275 44.4193V40.3827C188.777 40.7389 187.037 41.2731 186.055 41.9855C185.113 42.6978 184.642 43.4695 184.642 44.3006C184.642 45.7253 185.584 46.4376 187.467 46.4376ZM208.725 53.5611V23.8801H217.323L218.06 28.9852H218.306C219.452 26.9669 220.803 25.5026 222.359 24.5924C223.956 23.6426 225.512 23.1677 227.027 23.1677C227.968 23.1677 228.726 23.2271 229.299 23.3458C229.913 23.425 230.425 23.5635 230.834 23.7613L229.115 32.5469C228.583 32.4282 228.05 32.3293 227.518 32.2501C226.986 32.1314 226.372 32.072 225.676 32.072C224.57 32.072 223.403 32.448 222.175 33.1999C220.988 33.9122 220.025 35.1984 219.288 37.0584V53.5611H208.725Z" fill="black"/>
<path d="M68.595 52.1364L68.1373 53.0213L68.1446 53.0248L68.1521 53.0283L68.595 52.1364ZM61.348 45.5472L62.2278 45.0415L61.348 45.5472ZM60.2425 25.9577L61.1887 26.3352L61.1909 26.3301L60.2425 25.9577ZM64.603 19.5466L65.3186 20.254L64.603 19.5466ZM70.9288 15.6288L71.2918 16.5538L71.3005 16.5505L70.9288 15.6288ZM86.2212 15.8068L85.7704 16.6951L85.7774 16.6985L85.7845 16.7016L86.2212 15.8068ZM91.5643 19.3686L92.3565 19.995L92.9346 19.3121L92.2985 18.6792L91.5643 19.3686ZM86.0369 25.8984L85.3629 26.643L86.1591 27.3163L86.8292 26.5248L86.0369 25.8984ZM82.9047 23.8801L82.4195 24.7512L82.4398 24.7618L82.4607 24.7715L82.9047 23.8801ZM72.1571 26.0171L72.9187 26.6782L72.9255 26.6707L72.1571 26.0171ZM71.9728 42.5791L71.1813 43.2064L71.1884 43.2148L71.1956 43.223L71.9728 42.5791ZM81.5536 45.3097L81.3392 44.3423L81.3313 44.3439L81.3234 44.3457L81.5536 45.3097ZM82.9662 44.7755L83.5339 45.5987L83.9897 45.305V44.7755H82.9662ZM82.9662 39.4329H83.9897V38.4435H82.9662V39.4329ZM77.0703 39.4329H76.0467V40.4223H77.0703V39.4329ZM77.0703 31.1222V30.1329H76.0467V31.1222H77.0703ZM92.3013 31.1222H93.3249V30.1329H92.3013V31.1222ZM92.3013 49.5244L93.0142 50.2344L93.3249 49.9429V49.5244H92.3013ZM86.5897 52.9081L86.967 53.8278L86.9753 53.8245L86.5897 52.9081ZM78.7899 53.284C75.2028 53.284 71.9579 52.5992 69.0379 51.2445L68.1521 53.0283C71.3736 54.5229 74.9254 55.2628 78.7899 55.2628V53.284ZM69.0528 51.2515C66.2056 49.8755 63.9334 47.8141 62.2278 45.0415L60.4682 46.0529C62.3657 49.1373 64.9247 51.4687 68.1373 53.0213L69.0528 51.2515ZM62.2278 45.0415C60.544 42.3042 59.6693 38.8305 59.6693 34.5652H57.6222C57.6222 39.0855 58.549 42.9331 60.4682 46.0529L62.2278 45.0415ZM59.6693 34.5652C59.6693 31.4239 60.1845 28.687 61.1887 26.3352L59.2963 25.5803C58.1715 28.2149 57.6222 31.2163 57.6222 34.5652H59.6693ZM61.1909 26.3301C62.2076 23.9109 63.5862 21.8913 65.3186 20.254L63.8874 18.8392C61.9349 20.6845 60.4065 22.939 59.2942 25.5853L61.1909 26.3301ZM65.3186 20.254C67.0618 18.6065 69.0508 17.3754 71.2918 16.5538L70.5657 14.7037C68.0573 15.6234 65.8292 17.0042 63.8874 18.8392L65.3186 20.254ZM71.3005 16.5505C73.5946 15.6861 76.0067 15.2528 78.5443 15.2528V13.2741C75.7592 13.2741 73.0943 13.7509 70.557 14.707L71.3005 16.5505ZM78.5443 15.2528C81.3697 15.2528 83.7681 15.7457 85.7704 16.6951L86.672 14.9186C84.3342 13.8101 81.6147 13.2741 78.5443 13.2741V15.2528ZM85.7845 16.7016C87.8651 17.6502 89.5389 18.7733 90.8301 20.0579L92.2985 18.6792C90.8055 17.1936 88.9172 15.9422 86.6578 14.9121L85.7845 16.7016ZM90.772 18.7421L85.2447 25.2719L86.8292 26.5248L92.3565 19.995L90.772 18.7421ZM86.711 25.1538C85.6633 24.2677 84.5426 23.5442 83.3488 22.9887L82.4607 24.7715C83.4778 25.2449 84.4452 25.8669 85.3629 26.643L86.711 25.1538ZM83.39 23.0089C82.1361 22.3563 80.6265 22.0596 78.9128 22.0596V24.0384C80.3926 24.0384 81.5443 24.2957 82.4195 24.7512L83.39 23.0089ZM78.9128 22.0596C75.9132 22.0596 73.3824 23.1736 71.3887 25.3635L72.9255 26.6707C74.5348 24.9032 76.5077 24.0384 78.9128 24.0384V22.0596ZM71.3955 25.3561C69.3736 27.5324 68.4312 30.5297 68.4312 34.2091H70.4784C70.4784 30.8441 71.3375 28.3801 72.9186 26.6781L71.3955 25.3561ZM68.4312 34.2091C68.4312 37.9474 69.3018 40.9909 71.1813 43.2064L72.7644 41.9517C71.2865 40.2099 70.4784 37.6733 70.4784 34.2091H68.4312ZM71.1956 43.223C73.1714 45.4508 76.1443 46.4772 79.8954 46.4772V44.4985C76.5224 44.4985 74.2136 43.5857 72.75 41.9352L71.1956 43.223ZM79.8954 46.4772C80.5423 46.4772 81.1724 46.4101 81.7838 46.2738L81.3234 44.3457C80.8703 44.4468 80.3949 44.4985 79.8954 44.4985V46.4772ZM81.7681 46.2771C82.4288 46.1403 83.0296 45.9237 83.5339 45.5987L82.3984 43.9522C82.1658 44.1021 81.8249 44.2417 81.3392 44.3423L81.7681 46.2771ZM83.9897 44.7755V39.4329H81.9426V44.7755H83.9897ZM82.9662 38.4435H77.0703V40.4223H82.9662V38.4435ZM78.0939 39.4329V31.1222H76.0467V39.4329H78.0939ZM77.0703 32.1116H92.3013V30.1329H77.0703V32.1116ZM91.2777 31.1222V49.5244H93.3249V31.1222H91.2777ZM91.5883 48.8145C90.317 50.0072 88.5373 51.0742 86.204 51.9916L86.9753 53.8245C89.4733 52.8424 91.5013 51.6537 93.0142 50.2344L91.5883 48.8145ZM86.2124 51.9884C83.9698 52.8479 81.4995 53.284 78.7899 53.284V55.2628C81.7306 55.2628 84.4601 54.7887 86.967 53.8278L86.2124 51.9884ZM101.236 51.0085L100.382 51.5539L100.387 51.5608L101.236 51.0085ZM98.9639 23.8801V22.8907H97.9403V23.8801H98.9639ZM109.527 23.8801H110.551V22.8907H109.527V23.8801ZM110.264 44.6568L109.445 45.2504L109.457 45.2657L109.47 45.2807L110.264 44.6568ZM117.02 42.9946L117.871 43.5434L118.043 43.2942V42.9946H117.02ZM117.02 23.8801V22.8907H115.996V23.8801H117.02ZM127.583 23.8801H128.607V22.8907H127.583V23.8801ZM127.583 53.5611V54.5504H128.607V53.5611H127.583ZM118.985 53.5611L117.978 53.7381L118.13 54.5504H118.985V53.5611ZM118.248 49.6432L119.255 49.4662L119.103 48.6538H118.248V49.6432ZM118.003 49.6432V48.6538H117.523L117.216 49.0098L118.003 49.6432ZM113.888 53.0268L113.382 52.1663L113.372 52.1722L113.888 53.0268ZM108.545 53.284C105.436 53.284 103.364 52.2935 102.086 50.4562L100.387 51.5608C102.138 54.0767 104.938 55.2628 108.545 55.2628V53.284ZM102.09 50.4631C100.721 48.46 99.9875 45.7223 99.9875 42.1636H97.9403C97.9403 45.9657 98.7216 49.1246 100.382 51.5539L102.09 50.4631ZM99.9875 42.1636V23.8801H97.9403V42.1636H99.9875ZM98.9639 24.8694H109.527V22.8907H98.9639V24.8694ZM108.504 23.8801V40.8576H110.551V23.8801H108.504ZM108.504 40.8576C108.504 41.8427 108.567 42.7001 108.705 43.4144C108.841 44.1139 109.064 44.7593 109.445 45.2504L111.083 44.0631C110.973 43.9211 110.828 43.6166 110.718 43.0497C110.61 42.4977 110.551 41.7721 110.551 40.8576H108.504ZM109.47 45.2807C110.238 46.1944 111.339 46.5959 112.598 46.5959V44.6172C111.81 44.6172 111.355 44.3855 111.059 44.0329L109.47 45.2807ZM112.598 46.5959C113.721 46.5959 114.74 46.3694 115.597 45.8519L114.512 44.174C114.059 44.448 113.44 44.6172 112.598 44.6172V46.5959ZM115.597 45.8519C116.423 45.353 117.174 44.5543 117.871 43.5434L116.168 42.4458C115.555 43.3346 114.996 43.8814 114.512 44.174L115.597 45.8519ZM118.043 42.9946V23.8801H115.996V42.9946H118.043ZM117.02 24.8694H127.583V22.8907H117.02V24.8694ZM126.56 23.8801V53.5611H128.607V23.8801H126.56ZM127.583 52.5717H118.985V54.5504H127.583V52.5717ZM119.992 53.3841L119.255 49.4662L117.241 49.8202L117.978 53.7381L119.992 53.3841ZM118.248 48.6538H118.003V50.6325H118.248V48.6538ZM117.216 49.0098C116.059 50.3523 114.78 51.3997 113.382 52.1663L114.393 53.8873C116.025 52.9918 117.49 51.7834 118.789 50.2766L117.216 49.0098ZM113.372 52.1722C112.086 52.8972 110.492 53.284 108.545 53.284V55.2628C110.774 55.2628 112.741 54.8185 114.404 53.8814L113.372 52.1722ZM134.716 53.5611H133.692V54.5504H134.716V53.5611ZM134.716 23.8801V22.8907H133.692V23.8801H134.716ZM145.279 23.8801H146.303V22.8907H145.279V23.8801ZM145.279 53.5611V54.5504H146.303V53.5611H145.279ZM135.821 18.8343L135.126 19.5613L135.134 19.5684L135.142 19.5753L135.821 18.8343ZM135.821 11.4141L136.499 12.1551L136.507 12.1482L136.515 12.141L135.821 11.4141ZM144.174 11.4141L143.479 12.141L143.487 12.1482L143.495 12.1551L144.174 11.4141ZM144.174 18.8343L144.851 19.5753L144.859 19.5684L144.868 19.5613L144.174 18.8343ZM135.739 53.5611V23.8801H133.692V53.5611H135.739ZM134.716 24.8694H145.279V22.8907H134.716V24.8694ZM144.255 23.8801V53.5611H146.303V23.8801H144.255ZM145.279 52.5717H134.716V54.5504H145.279V52.5717ZM139.997 19.2103C138.472 19.2103 137.339 18.8114 136.499 18.0933L135.142 19.5753C136.431 20.6776 138.082 21.189 139.997 21.189V19.2103ZM136.515 18.1073C135.683 17.3651 135.248 16.3931 135.248 15.0945H133.201C133.201 16.8827 133.829 18.4039 135.126 19.5613L136.515 18.1073ZM135.248 15.0945C135.248 13.7956 135.683 12.8531 136.499 12.1551L135.142 10.673C133.83 11.7954 133.201 13.3066 133.201 15.0945H135.248ZM136.515 12.141C137.355 11.3907 138.483 10.9787 139.997 10.9787V9C138.071 9 136.415 9.53782 135.126 10.6871L136.515 12.141ZM139.997 10.9787C141.51 10.9787 142.638 11.3907 143.479 12.141L144.868 10.6871C143.579 9.53782 141.923 9 139.997 9V10.9787ZM143.495 12.1551C144.312 12.8531 144.747 13.7956 144.747 15.0945H146.794C146.794 13.3066 146.164 11.7954 144.851 10.673L143.495 12.1551ZM144.747 15.0945C144.747 16.3931 144.311 17.3651 143.479 18.1073L144.868 19.5613C146.164 18.4039 146.794 16.8827 146.794 15.0945H144.747ZM143.495 18.0933C142.655 18.8114 141.521 19.2103 139.997 19.2103V21.189C141.911 21.189 143.562 20.6776 144.851 19.5753L143.495 18.0933ZM156.4 50.9491L155.582 51.5449L155.589 51.5527L155.595 51.5604L156.4 50.9491ZM153.759 31.8346H154.783V30.8452H153.759V31.8346ZM149.706 31.8346H148.682V32.8239H149.706V31.8346ZM149.706 24.2362L149.625 23.2499L148.682 23.3219V24.2362H149.706ZM154.374 23.8801L154.453 24.8664L155.262 24.8047L155.385 24.0306L154.374 23.8801ZM155.602 16.163V15.1736H154.724L154.59 16.0125L155.602 16.163ZM164.323 16.163H165.346V15.1736H164.323V16.163ZM164.323 23.8801H163.299V24.8694H164.323V23.8801ZM171.324 23.8801H172.348V22.8907H171.324V23.8801ZM171.324 31.8346V32.8239H172.348V31.8346H171.324ZM164.323 31.8346V30.8452H163.299V31.8346H164.323ZM165.428 45.3691L166.108 44.6297L165.428 45.3691ZM169.42 46.2002L169.604 47.1736L169.636 47.1678L169.668 47.16L169.42 46.2002ZM170.71 45.844L171.711 45.641L171.476 44.5543L170.386 44.9054L170.71 45.844ZM172.307 53.2049L172.615 54.1483L173.498 53.8785L173.308 53.0019L172.307 53.2049ZM169.359 53.9172L169.566 54.8861L169.359 53.9172ZM165.06 53.284C161.281 53.284 158.748 52.2362 157.205 50.3379L155.595 51.5604C157.655 54.0944 160.895 55.2628 165.06 55.2628V53.284ZM157.217 50.3533C155.623 48.3114 154.783 45.6094 154.783 42.1636H152.736C152.736 45.9203 153.655 49.0754 155.582 51.5449L157.217 50.3533ZM154.783 42.1636V31.8346H152.736V42.1636H154.783ZM153.759 30.8452H149.706V32.8239H153.759V30.8452ZM150.73 31.8346V24.2362H148.682V31.8346H150.73ZM149.786 25.2225L154.453 24.8664L154.293 22.8938L149.625 23.2499L149.786 25.2225ZM155.385 24.0306L156.613 16.3135L154.59 16.0125L153.361 23.7296L155.385 24.0306ZM155.602 17.1524H164.323V15.1736H155.602V17.1524ZM163.299 16.163V23.8801H165.346V16.163H163.299ZM164.323 24.8694H171.324V22.8907H164.323V24.8694ZM170.301 23.8801V31.8346H172.348V23.8801H170.301ZM171.324 30.8452H164.323V32.8239H171.324V30.8452ZM163.299 31.8346V41.9855H165.346V31.8346H163.299ZM163.299 41.9855C163.299 43.7012 163.68 45.1906 164.748 46.1086L166.108 44.6297C165.703 44.2812 165.346 43.5148 165.346 41.9855H163.299ZM164.748 46.1086C165.672 46.9021 166.773 47.3083 168.008 47.3083V45.3295C167.277 45.3295 166.659 45.1025 166.108 44.6297L164.748 46.1086ZM168.008 47.3083C168.555 47.3083 169.088 47.2641 169.604 47.1736L169.237 45.2267C168.851 45.2945 168.442 45.3295 168.008 45.3295V47.3083ZM169.668 47.16C170.178 47.0369 170.634 46.9113 171.034 46.7826L170.386 44.9054C170.049 45.0141 169.645 45.126 169.172 45.2404L169.668 47.16ZM169.708 46.047L171.305 53.4079L173.308 53.0019L171.711 45.641L169.708 46.047ZM171.999 52.2614C171.265 52.4852 170.319 52.7149 169.151 52.9483L169.566 54.8861C170.772 54.6447 171.792 54.3994 172.615 54.1483L171.999 52.2614ZM169.151 52.9483C168.053 53.1681 166.694 53.284 165.06 53.284V55.2628C166.784 55.2628 168.29 55.1413 169.566 54.8861L169.151 52.9483ZM178.808 53.0268L178.241 53.85L178.255 53.8595L178.27 53.8685L178.808 53.0268ZM175.675 49.6432L174.766 50.0956L175.675 49.6432ZM178.501 37.8895L179.081 38.7048L179.089 38.6988L178.501 37.8895ZM191.275 34.3278L191.381 35.3118L192.411 35.2082L192.292 34.2144L191.275 34.3278ZM183.475 31.8939L183.8 32.8325L183.814 32.8279L183.828 32.8228L183.475 31.8939ZM179.238 33.7342L178.336 34.2013L178.82 35.0753L179.723 34.6053L179.238 33.7342ZM175.553 27.0856L175.023 26.2386L174.191 26.7244L174.651 27.5528L175.553 27.0856ZM182.124 24.1769L181.822 23.2316L181.817 23.2331L182.124 24.1769ZM198.461 26.492L197.731 27.1852L197.737 27.1916L198.461 26.492ZM201.838 53.5611V54.5504H202.862V53.5611H201.838ZM193.24 53.5611L192.247 53.801L192.442 54.5504H193.24V53.5611ZM192.503 50.7117L193.496 50.4718L193.303 49.7223H192.503V50.7117ZM192.258 50.7117V49.7223H191.866L191.573 49.9763L192.258 50.7117ZM188.327 53.3236L188.774 54.2139L188.785 54.2085L188.327 53.3236ZM189.617 45.9034L190.17 46.7356L190.192 46.7226L190.212 46.7084L189.617 45.9034ZM191.275 44.4193L192.049 45.0672L192.299 44.7883V44.4193H191.275ZM191.275 40.3827H192.299V39.2366L191.126 39.4039L191.275 40.3827ZM186.055 41.9855L185.44 41.194L185.432 41.2001L185.424 41.2063L186.055 41.9855ZM183.782 53.284C182.015 53.284 180.55 52.9037 179.346 52.185L178.27 53.8685C179.851 54.812 181.702 55.2628 183.782 55.2628V53.284ZM179.376 52.2035C178.168 51.4256 177.243 50.4249 176.586 49.1907L174.766 50.0956C175.582 51.6317 176.745 52.8867 178.241 53.85L179.376 52.2035ZM176.586 49.1907C175.926 47.9514 175.594 46.6036 175.594 45.1317H173.546C173.546 46.9048 173.951 48.5647 174.766 50.0956L176.586 49.1907ZM175.594 45.1317C175.594 42.3689 176.74 40.2605 179.081 38.7047L177.921 37.0743C175.021 39.001 173.546 41.7207 173.546 45.1317H175.594ZM179.089 38.6988C181.492 37.0666 185.535 35.9005 191.381 35.3118L191.17 33.3438C185.225 33.9423 180.751 35.1506 177.912 37.0802L179.089 38.6988ZM192.292 34.2144C192.144 32.9728 191.615 31.9281 190.627 31.2185C189.668 30.5303 188.408 30.2516 186.976 30.2516V32.2303C188.165 32.2303 188.931 32.4661 189.406 32.8068C189.85 33.1261 190.161 33.6248 190.259 34.4412L192.292 34.2144ZM186.976 30.2516C185.73 30.2516 184.445 30.4968 183.123 30.965L183.828 32.8228C184.964 32.4204 186.011 32.2303 186.976 32.2303V30.2516ZM183.152 30.9553C181.851 31.3746 180.382 32.0148 178.752 32.863L179.723 34.6053C181.287 33.7913 182.644 33.2047 183.8 32.8325L183.152 30.9553ZM180.14 33.267L176.455 26.6184L174.651 27.5528L178.336 34.2013L180.14 33.267ZM176.082 27.9326C178.188 26.7031 180.305 25.7677 182.432 25.1205L181.817 23.2331C179.521 23.9316 177.257 24.9353 175.023 26.2386L176.082 27.9326ZM182.427 25.1221C184.58 24.4788 186.792 24.1571 189.064 24.1571V22.1784C186.588 22.1784 184.172 22.5294 181.822 23.2316L182.427 25.1221ZM189.064 24.1571C192.875 24.1571 195.716 25.2031 197.731 27.1852L199.191 25.7987C196.701 23.3485 193.279 22.1784 189.064 22.1784V24.1571ZM197.737 27.1916C199.711 29.0994 200.815 32.3056 200.815 37.0584H202.862C202.862 32.0759 201.715 28.2378 199.184 25.7924L197.737 27.1916ZM200.815 37.0584V53.5611H202.862V37.0584H200.815ZM201.838 52.5717H193.24V54.5504H201.838V52.5717ZM194.233 53.3211L193.496 50.4718L191.51 50.9516L192.247 53.801L194.233 53.3211ZM192.503 49.7223H192.258V51.701H192.503V49.7223ZM191.573 49.9763C190.409 50.989 189.175 51.8081 187.869 52.4387L188.785 54.2085C190.265 53.4936 191.651 52.5714 192.942 51.4471L191.573 49.9763ZM187.881 52.4334C186.684 52.994 185.325 53.284 183.782 53.284V55.2628C185.597 55.2628 187.268 54.9197 188.774 54.2138L187.881 52.4334ZM187.467 47.427C188.472 47.427 189.394 47.2181 190.17 46.7356L189.064 45.0711C188.693 45.3009 188.182 45.4483 187.467 45.4483V47.427ZM190.212 46.7084C190.86 46.261 191.471 45.7111 192.049 45.0672L190.502 43.7714C190.015 44.3147 189.521 44.7542 189.022 45.0983L190.212 46.7084ZM192.299 44.4193V40.3827H190.251V44.4193H192.299ZM191.126 39.4039C188.602 39.7638 186.641 40.3237 185.44 41.194L186.669 42.777C187.434 42.2225 188.953 41.7139 191.424 41.3615L191.126 39.4039ZM185.424 41.2063C184.337 42.0285 183.619 43.0582 183.619 44.3006H185.666C185.666 43.8808 185.889 43.3671 186.686 42.7646L185.424 41.2063ZM183.619 44.3006C183.619 45.2389 183.942 46.0953 184.718 46.6825C185.447 47.2336 186.42 47.427 187.467 47.427V45.4483C186.631 45.4483 186.193 45.2855 185.98 45.1242C185.814 44.9991 185.666 44.787 185.666 44.3006H183.619ZM208.725 53.5611H207.701V54.5504H208.725V53.5611ZM208.725 23.8801V22.8907H207.701V23.8801H208.725ZM217.323 23.8801L218.338 23.7433L218.214 22.8907H217.323V23.8801ZM218.06 28.9852L217.047 29.1219L217.17 29.9746H218.06V28.9852ZM218.306 28.9852V29.9746H218.912L219.204 29.4614L218.306 28.9852ZM222.359 24.5924L222.889 25.4388L222.896 25.4351L222.359 24.5924ZM229.299 23.3458L229.085 24.3132L229.124 24.3213L229.164 24.3265L229.299 23.3458ZM230.835 23.7613L231.841 23.9453L231.984 23.2108L231.292 22.8765L230.835 23.7613ZM229.115 32.5469L228.885 33.511L229.923 33.7425L230.121 32.7308L229.115 32.5469ZM227.518 32.2501L227.288 33.2141L227.326 33.2224L227.363 33.228L227.518 32.2501ZM222.175 33.1999L222.715 34.0406L222.723 34.0357L222.175 33.1999ZM219.288 37.0584L218.332 36.7046L218.265 36.8755V37.0584H219.288ZM219.288 53.5611V54.5504H220.312V53.5611H219.288ZM209.749 53.5611V23.8801H207.701V53.5611H209.749ZM208.725 24.8694H217.323V22.8907H208.725V24.8694ZM216.31 24.0168L217.047 29.1219L219.075 28.8485L218.338 23.7433L216.31 24.0168ZM218.06 29.9746H218.306V27.9958H218.06V29.9746ZM219.204 29.4614C220.29 27.5495 221.528 26.2353 222.889 25.4388L221.829 23.746C220.079 24.77 218.616 26.3843 217.409 28.509L219.204 29.4614ZM222.896 25.4351C224.37 24.5585 225.742 24.1571 227.027 24.1571V22.1784C225.283 22.1784 223.542 22.7268 221.823 23.7498L222.896 25.4351ZM227.027 24.1571C227.935 24.1571 228.611 24.2152 229.085 24.3132L229.514 22.3784C228.841 22.239 228.003 22.1784 227.027 22.1784V24.1571ZM229.164 24.3265C229.703 24.3959 230.098 24.5112 230.377 24.6462L231.292 22.8765C230.753 22.6158 230.124 22.454 229.434 22.3652L229.164 24.3265ZM229.829 23.5774L228.11 32.363L230.121 32.7308L231.841 23.9453L229.829 23.5774ZM229.345 31.5829C228.788 31.4587 228.232 31.3551 227.674 31.2722L227.363 33.228C227.869 33.3034 228.377 33.3977 228.885 33.511L229.345 31.5829ZM227.748 31.2861C227.123 31.1467 226.429 31.0827 225.676 31.0827V33.0614C226.314 33.0614 226.849 33.1161 227.288 33.2141L227.748 31.2861ZM225.676 31.0827C224.325 31.0827 222.969 31.5428 221.627 32.3641L222.723 34.0357C223.838 33.3532 224.817 33.0614 225.676 33.0614V31.0827ZM221.636 32.3593C220.187 33.2284 219.113 34.7345 218.332 36.7046L220.244 37.4122C220.938 35.6623 221.789 34.5961 222.715 34.0405L221.636 32.3593ZM218.265 37.0584V53.5611H220.312V37.0584H218.265ZM219.288 52.5717H208.725V54.5504H219.288V52.5717Z" fill="white"/>
<path d="M118.296 83.242L110.828 58.8047H117.907L120.552 69.4819C120.916 70.7852 121.227 72.0761 121.486 73.3543C121.771 74.6075 122.083 75.8983 122.419 77.2267H122.575C122.938 75.8983 123.249 74.6075 123.508 73.3543C123.794 72.0761 124.105 70.7852 124.442 69.4819L127.009 58.8047H133.855L126.387 83.242H118.296ZM135.732 83.242V64.4441H142.422V83.242H135.732ZM139.077 62.1131C137.988 62.1131 137.107 61.8249 136.432 61.2484C135.758 60.6469 135.421 59.8574 135.421 58.8799C135.421 57.9024 135.758 57.1254 136.432 56.5489C137.107 55.9474 137.988 55.6466 139.077 55.6466C140.166 55.6466 141.048 55.9474 141.722 56.5489C142.397 57.1254 142.733 57.9024 142.733 58.8799C142.733 59.8574 142.397 60.6469 141.722 61.2484C141.048 61.8249 140.166 62.1131 139.077 62.1131ZM152.927 83.6932C151.424 83.6932 150.231 83.405 149.349 82.8285C148.493 82.227 147.871 81.3998 147.482 80.3472C147.119 79.2694 146.937 78.0288 146.937 76.6252V57.0753H153.627V76.8507C153.627 77.4773 153.744 77.916 153.977 78.1666C154.237 78.3922 154.483 78.505 154.717 78.505C154.847 78.505 154.95 78.505 155.028 78.505C155.132 78.4799 155.261 78.4548 155.417 78.4298L156.195 83.1669C155.858 83.3172 155.417 83.4426 154.872 83.5428C154.328 83.643 153.68 83.6932 152.927 83.6932ZM164.513 83.6932C163.009 83.6932 161.816 83.405 160.935 82.8285C160.079 82.227 159.457 81.3998 159.068 80.3472C158.704 79.2694 158.523 78.0288 158.523 76.6252V57.0753H165.213V76.8507C165.213 77.4773 165.33 77.916 165.563 78.1666C165.822 78.3922 166.069 78.505 166.302 78.505C166.431 78.505 166.536 78.505 166.614 78.505C166.717 78.4799 166.847 78.4548 167.003 78.4298L167.781 83.1669C167.443 83.3172 167.003 83.4426 166.458 83.5428C165.914 83.643 165.265 83.6932 164.513 83.6932ZM175.165 83.6932C173.946 83.6932 172.895 83.43 172.014 82.9037C171.158 82.3523 170.497 81.638 170.03 80.7607C169.564 79.8834 169.33 78.9311 169.33 77.9034C169.33 75.9484 170.16 74.4196 171.82 73.3167C173.479 72.1888 176.176 71.4369 179.91 71.061C179.754 69.7577 178.847 69.106 177.187 69.106C176.487 69.106 175.748 69.2438 174.97 69.5195C174.192 69.7701 173.298 70.1587 172.286 70.685L169.953 66.4743C171.327 65.6722 172.714 65.0582 174.115 64.6321C175.54 64.2059 177.006 63.9929 178.51 63.9929C181.051 63.9929 183.035 64.6947 184.461 66.0983C185.887 67.4768 186.6 69.7075 186.6 72.7904V83.242H181.155L180.688 81.4374H180.532C179.754 82.1142 178.924 82.6655 178.043 83.0917C177.187 83.4926 176.228 83.6932 175.165 83.6932ZM177.498 78.7305C178.043 78.7305 178.496 78.6177 178.86 78.3922C179.223 78.1416 179.573 77.8282 179.91 77.4523V74.8958C178.329 75.1213 177.226 75.4597 176.604 75.9108C176.007 76.362 175.709 76.8507 175.709 77.3771C175.709 78.2794 176.306 78.7305 177.498 78.7305ZM198.041 90.9868C196.563 90.9868 195.201 90.8239 193.957 90.4981C192.712 90.1973 191.714 89.7085 190.962 89.0318C190.236 88.3551 189.873 87.4528 189.873 86.3249C189.873 84.8461 190.781 83.643 192.595 82.7157V82.5653C192.103 82.2144 191.675 81.7884 191.312 81.2871C190.975 80.7607 190.806 80.109 190.806 79.3321C190.806 78.6804 191.001 78.0412 191.39 77.4147C191.804 76.7881 192.336 76.2492 192.984 75.798V75.6477C192.284 75.1965 191.662 74.5574 191.117 73.7303C190.598 72.8781 190.339 71.9131 190.339 70.8354C190.339 69.2814 190.728 68.0031 191.506 67.0006C192.31 65.973 193.348 65.221 194.618 64.7449C195.888 64.2435 197.237 63.9929 198.663 63.9929C199.804 63.9929 200.841 64.1433 201.775 64.4441H209.01V69.106H206.209C206.287 69.3316 206.351 69.6198 206.404 69.9707C206.481 70.3216 206.52 70.685 206.52 71.061C206.52 72.5398 206.17 73.7428 205.47 74.6702C204.77 75.5725 203.823 76.2366 202.631 76.6628C201.438 77.0889 200.116 77.3019 198.663 77.3019C198.015 77.3019 197.289 77.2141 196.485 77.0387C196.174 77.3145 196.018 77.6778 196.018 78.129C196.018 78.53 196.226 78.8183 196.641 78.9937C197.082 79.1691 197.782 79.2569 198.741 79.2569H201.658C204.095 79.2569 205.976 79.6454 207.298 80.4224C208.646 81.1743 209.321 82.4149 209.321 84.1443C209.321 85.4978 208.854 86.6883 207.921 87.716C207.013 88.7436 205.717 89.5456 204.031 90.1221C202.345 90.6986 200.349 90.9868 198.041 90.9868ZM198.663 73.4671C199.286 73.4671 199.791 73.2541 200.18 72.828C200.569 72.4019 200.764 71.7377 200.764 70.8354C200.764 69.9581 200.569 69.319 200.18 68.918C199.791 68.4919 199.286 68.2789 198.663 68.2789C198.041 68.2789 197.535 68.4919 197.146 68.918C196.757 69.319 196.563 69.9581 196.563 70.8354C196.563 71.7377 196.757 72.4019 197.146 72.828C197.535 73.2541 198.041 73.4671 198.663 73.4671ZM199.13 87.0016C200.219 87.0016 201.127 86.8387 201.853 86.5129C202.578 86.2121 202.942 85.7986 202.942 85.2722C202.942 84.7709 202.708 84.4577 202.242 84.3323C201.8 84.207 201.166 84.1443 200.336 84.1443H198.819C198.041 84.1443 197.444 84.1193 197.03 84.0692C196.641 84.0441 196.304 83.994 196.018 83.9188C195.551 84.3699 195.318 84.8211 195.318 85.2722C195.318 85.8738 195.668 86.3123 196.368 86.5881C197.094 86.8638 198.015 87.0016 199.13 87.0016ZM220.459 83.6932C218.567 83.6932 216.855 83.3047 215.325 82.5277C213.821 81.7508 212.628 80.6354 211.747 79.1817C210.865 77.7029 210.424 75.9234 210.424 73.8431C210.424 71.8129 210.865 70.0709 211.747 68.6172C212.655 67.1384 213.821 65.9981 215.247 65.196C216.673 64.3939 218.178 63.9929 219.759 63.9929C221.679 63.9929 223.26 64.4065 224.505 65.2336C225.775 66.0357 226.708 67.126 227.305 68.5044C227.928 69.8829 228.239 71.4119 228.239 73.0911C228.239 73.6425 228.2 74.1814 228.122 74.7078C228.07 75.2091 228.019 75.5725 227.966 75.798H216.881C217.192 76.9259 217.75 77.7154 218.554 78.1666C219.357 78.5927 220.304 78.8057 221.393 78.8057C222.638 78.8057 223.96 78.4298 225.36 77.6778L227.539 81.5126C226.502 82.2144 225.335 82.7533 224.038 83.1293C222.741 83.5052 221.549 83.6932 220.459 83.6932ZM216.803 71.5873H222.56C222.56 70.8604 222.365 70.2339 221.976 69.7075C221.613 69.1561 220.926 68.8804 219.915 68.8804C219.189 68.8804 218.54 69.0934 217.97 69.5195C217.4 69.9457 217.011 70.6348 216.803 71.5873Z" fill="black"/>
<path d="M59.526 102.04V82.2527C59.526 81.7063 59.0678 81.2633 58.5024 81.2633H35.4717C34.9064 81.2633 34.4481 81.7063 34.4481 82.2527V102.04" stroke="black" stroke-width="7"/>
</svg>
